<svg xmlns="http://www.w3.org/2000/svg" width="75" height="52" viewBox="0 0 75 52" fill="none">
  <path
    fill-rule="evenodd"
    clip-rule="evenodd"
    d="M52.3085 0C58.7957 0 64.0587 4.76437 64.0587 10.6522C64.0587 16.5333 58.7915 21.3045 52.3085 21.3045C45.8134 21.3045 40.5583 16.5295 40.5583 10.6522C40.5583 4.7641 45.8137 0 52.3085 0ZM2.08437 1.41443H39.7715C38.7587 2.53819 37.9179 3.81785 37.308 5.18981H4.16463V31.2169H31.513C31.1845 31.66 30.8717 32.1138 30.5823 32.5782C29.7807 33.0035 29.0416 33.5211 28.3887 34.1131C26.3671 35.9458 25.2252 38.4131 25.2057 41.0115C25.1939 42.2629 25.2057 43.5249 25.2057 44.7869H15.5042C14.3546 44.7869 13.4122 43.9432 13.4122 42.901C13.4122 41.8589 14.3546 41.0152 15.5042 41.0152H21.4205C21.4323 39.8099 21.62 38.6188 21.9719 37.4774H2.08026C0.930666 37.4774 0 36.6337 0 35.5915V3.31174C0 2.26957 0.930656 1.42586 2.08026 1.42586L2.08437 1.41443ZM10.0535 8.9474H33.2376C34.3872 8.9474 35.3178 9.80173 35.3178 10.8439C35.3178 11.879 34.3755 12.7298 33.2376 12.7298H10.0535C8.90394 12.7298 7.97328 11.8754 7.97328 10.8439C7.97328 9.80172 8.90394 8.9474 10.0535 8.9474ZM10.0535 23.6834H25.5816C26.7234 23.6834 27.6619 24.5271 27.6619 25.5693C27.6619 26.6114 26.7195 27.4551 25.5816 27.4551H10.0535C8.90394 27.4551 7.97328 26.6114 7.97328 25.5693C7.97328 24.5271 8.90394 23.6834 10.0535 23.6834ZM10.0535 16.3135H33.2376C34.3872 16.3135 35.3178 17.1678 35.3178 18.1994C35.3178 19.2415 34.3755 20.0959 33.2376 20.0959H10.0535C8.90394 20.0959 7.97328 19.2415 7.97328 18.1994C7.97328 17.1643 8.90394 16.3135 10.0535 16.3135ZM3.87523 51.9964C2.72564 51.9964 1.78326 51.1527 1.78326 50.1105C1.78326 49.0683 2.72565 48.214 3.87523 48.214H25.2064V52H3.87523V51.9964ZM75 50.1105C75 51.1527 74.0693 51.9964 72.9197 51.9964C71.7701 51.9964 70.8395 51.1527 70.8395 50.1105V41.071C70.8395 40.5002 70.5775 39.9827 70.1669 39.6105C69.7446 39.2276 69.1776 39.0007 68.5558 39.0007H36.0611C35.4316 39.0007 34.8607 39.2276 34.4501 39.6105C34.0395 39.9827 33.7775 40.5002 33.7775 41.071V50.1105C33.7775 51.1527 32.8468 51.9964 31.6855 51.9964C30.5359 51.9964 29.6053 51.1527 29.6053 50.1105V41.071C29.6053 39.4545 30.3365 37.994 31.4978 36.9341C32.1469 36.3456 32.9407 35.8812 33.8088 35.5905C37.0035 29.5819 44.0895 25.3993 52.308 25.3993C60.5274 25.3993 67.6049 29.5823 70.7962 35.5805C71.676 35.8783 72.4581 36.3427 73.1072 36.9312C74.2803 37.9947 74.9997 39.4551 74.9997 41.0681L75 50.1105Z"
    fill="currentColor"
  />
</svg>
