<svg width="57" height="62" viewBox="0 0 57 62" fill="none" xmlns="http://www.w3.org/2000/svg">
<path d="M10.138 38.4354H23.3698C23.9296 38.4354 24.3876 37.9774 24.3876 37.4176C24.3876 36.8577 23.9296 36.3997 23.3698 36.3997H10.138C9.57815 36.3997 9.12012 36.8577 9.12012 37.4176C9.12012 37.9774 9.57815 38.4354 10.138 38.4354Z" fill="black"/>
<path d="M10.138 44.5426H23.3698C23.9296 44.5426 24.3876 44.0845 24.3876 43.5247C24.3876 42.9649 23.9296 42.5068 23.3698 42.5068H10.138C9.57815 42.5068 9.12012 42.9649 9.12012 43.5247C9.12012 44.0845 9.57815 44.5426 10.138 44.5426Z" fill="black"/>
<path d="M10.138 50.6497H23.3698C23.9296 50.6497 24.3876 50.1917 24.3876 49.6318C24.3876 49.072 23.9296 48.614 23.3698 48.614H10.138C9.57815 48.614 9.12012 49.072 9.12012 49.6318C9.12012 50.1917 9.57815 50.6497 10.138 50.6497Z" fill="black"/>
<path d="M46.7809 36.3997H33.5491C32.9893 36.3997 32.5312 36.8577 32.5312 37.4176C32.5312 37.9774 32.9893 38.4354 33.5491 38.4354H46.7809C47.3407 38.4354 47.7988 37.9774 47.7988 37.4176C47.7988 36.8577 47.3407 36.3997 46.7809 36.3997Z" fill="black"/>
<path d="M10.138 32.3283H19.2984C19.8582 32.3283 20.3162 31.8702 20.3162 31.3104C20.3162 30.7506 19.8582 30.2926 19.2984 30.2926H10.138C9.57815 30.2926 9.12012 30.7506 9.12012 31.3104C9.12012 31.8702 9.57815 32.3283 10.138 32.3283Z" fill="black"/>
<path d="M37.6194 32.3283H46.7798C47.3396 32.3283 47.7977 31.8702 47.7977 31.3104C47.7977 30.7506 47.3396 30.2926 46.7798 30.2926H37.6194C37.0596 30.2926 36.6016 30.7506 36.6016 31.3104C36.6016 31.8702 37.0596 32.3283 37.6194 32.3283Z" fill="black"/>
<path d="M46.7809 42.5068H33.5491C32.9893 42.5068 32.5312 42.9649 32.5312 43.5247C32.5312 44.0845 32.9893 44.5426 33.5491 44.5426H46.7809C47.3407 44.5426 47.7988 44.0845 47.7988 43.5247C47.7988 42.9649 47.3407 42.5068 46.7809 42.5068Z" fill="black"/>
<path d="M46.7809 48.614H33.5491C32.9893 48.614 32.5312 49.072 32.5312 49.6318C32.5312 50.1917 32.9893 50.6497 33.5491 50.6497H46.7809C47.3407 50.6497 47.7988 50.1917 47.7988 49.6318C47.7988 49.072 47.3407 48.614 46.7809 48.614Z" fill="black"/>
<path d="M43.727 8.91781C43.8797 8.91781 44.0323 8.88727 44.185 8.80584L46.2207 7.78798C46.7195 7.53352 46.923 6.92282 46.6787 6.42402C46.4345 5.92522 45.8136 5.72172 45.3148 5.96599L43.2791 6.98385C42.7803 7.23831 42.5768 7.84901 42.821 8.34781C43.0043 8.70406 43.3605 8.90763 43.7371 8.90763L43.727 8.91781Z" fill="black"/>
<path d="M43.2694 12.8772L45.3051 13.895C45.4476 13.9663 45.6105 14.007 45.7631 14.007C46.1397 14.007 46.496 13.8034 46.6792 13.4472C46.9336 12.9484 46.7301 12.3377 46.2211 12.0832L44.1854 11.0654C43.6765 10.8109 43.076 11.0145 42.8215 11.5234C42.567 12.0221 42.7706 12.6328 43.2795 12.8874L43.2694 12.8772Z" fill="black"/>
<path d="M10.6971 7.78758L12.7329 8.80544C12.8754 8.87669 13.0382 8.91741 13.1909 8.91741C13.5675 8.91741 13.9237 8.71384 14.1069 8.35758C14.3614 7.85884 14.1578 7.24814 13.6489 6.99362L11.6132 5.97577C11.1144 5.7213 10.5037 5.92487 10.2492 6.4338C9.99471 6.94272 10.1983 7.54325 10.7073 7.79776L10.6971 7.78758Z" fill="black"/>
<path d="M11.1557 14.0068C11.3084 14.0068 11.461 13.9762 11.6137 13.8948L13.6494 12.8769C14.1482 12.6225 14.3517 12.0118 14.1075 11.513C13.853 11.0142 13.2423 10.8107 12.7435 11.055L10.7078 12.0728C10.209 12.3273 10.0055 12.938 10.2497 13.4368C10.433 13.793 10.7892 13.9966 11.1658 13.9966L11.1557 14.0068Z" fill="black"/>
<path d="M27.4413 16.9182V25.2037C27.4413 25.7635 27.8993 26.2216 28.4591 26.2216C29.0189 26.2216 29.477 25.7635 29.477 25.2037V16.9182C31.2277 16.4602 32.5306 14.8825 32.5306 12.9893C32.5306 12.4295 32.0725 11.9715 31.5127 11.9715C30.9529 11.9715 30.4948 12.4295 30.4948 12.9893C30.4948 14.109 29.5788 15.025 28.4591 15.025C27.3394 15.025 26.4234 14.109 26.4234 12.9893C26.4234 12.4295 25.9654 11.9715 25.4056 11.9715C24.8457 11.9715 24.3877 12.4295 24.3877 12.9893C24.3877 14.8825 25.6906 16.4602 27.4413 16.9182Z" fill="black"/>
<path d="M53.9459 22.3929H52.9281V21.375C52.9281 19.6956 51.5539 18.3214 49.8745 18.3214H39.2178C40.0932 16.245 40.714 14.1177 40.714 12.2143C40.714 5.47591 35.238 0 28.4997 0C21.7615 0 16.2855 5.47604 16.2855 12.2143C16.2855 14.1177 16.9063 16.245 17.7817 18.3214H7.125C5.44555 18.3214 4.07143 19.6956 4.07143 21.375V22.3929H3.05357C1.37412 22.3929 0 23.767 0 25.4464V58.0179C0 59.6973 1.37412 61.0714 3.05357 61.0714H53.9464C55.6259 61.0714 57 59.6973 57 58.0179V25.4464C57 23.767 55.6254 22.3929 53.9459 22.3929ZM49.8745 20.3571C50.4343 20.3571 50.8923 20.8152 50.8923 21.375V53.9464C50.8923 54.5063 50.4343 54.9643 49.8745 54.9643H29.5173V34.6071H30.5352C31.6549 34.6071 32.5709 33.6911 32.5709 32.5714V30.2507C33.1714 29.8945 33.5888 29.2532 33.5888 28.5V27.8282C34.515 26.5967 36.6016 23.6754 38.2811 20.357H49.8843L49.8745 20.3571ZM26.4634 30.5357H30.5349V32.5714H26.4634V30.5357ZM28.4992 2.03571C34.1076 2.03571 38.6777 6.60588 38.6777 12.2143C38.6777 16.2246 35.0542 22.4743 31.9602 26.607C31.6956 26.9632 31.553 27.3805 31.553 27.8284V28.5001H25.4459V27.8284C25.4459 27.3805 25.3034 26.9632 25.0388 26.607C21.9343 22.4744 18.3212 16.2245 18.3212 12.2143C18.3212 6.60588 22.8907 2.03571 28.4992 2.03571ZM6.1063 21.3753C6.1063 20.8155 6.56433 20.3575 7.12415 20.3575H18.7274C20.4068 23.6757 22.4833 26.5969 23.4095 27.8287V28.5005C23.4095 29.2536 23.8269 29.8949 24.4274 30.2512V32.5719C24.4274 33.6916 25.3434 34.6076 26.4631 34.6076H27.481V54.9647H7.12383C6.564 54.9647 6.10597 54.5067 6.10597 53.9469L6.1063 21.3753ZM54.9634 58.0182C54.9634 58.578 54.5054 59.036 53.9456 59.036H3.05272C2.4929 59.036 2.03487 58.578 2.03487 58.0182V25.4468C2.03487 24.8869 2.4929 24.4289 3.05272 24.4289H4.07058V53.9464C4.07058 55.6259 5.44471 57 7.12415 57H49.8742C51.5536 57 52.9277 55.6259 52.9277 53.9464V24.4289H53.9456C54.5054 24.4289 54.9634 24.8869 54.9634 25.4468V58.0182Z" fill="black"/>
</svg>
