<svg width="75" height="51" viewBox="0 0 75 51" fill="none" xmlns="http://www.w3.org/2000/svg">
<path d="M70.1519 28.4434V23.1459C73.1217 21.0859 75.0001 16.893 75.0001 12.1956C74.5514 -4.05882 57.7201 -4.07156 57.2676 12.1956C57.2676 16.8926 59.1459 21.0824 62.1157 23.1425V28.4433C61.7608 28.4433 61.4193 28.5826 61.1682 28.8314C60.917 29.0802 60.7764 29.4186 60.7764 29.7702V45.6926C60.7764 48.6249 63.1738 51 66.1335 51C69.0933 51 71.4907 48.6249 71.4907 45.6926V29.7702C71.4907 29.4186 71.35 29.0802 71.0989 28.8314C70.8478 28.5826 70.5069 28.4434 70.1519 28.4434ZM68.8126 45.6922C68.7926 47.1418 67.5972 48.3094 66.1341 48.3094C64.6709 48.3094 63.4756 47.1418 63.4555 45.6922V31.0963H68.8126V45.6922ZM68.1597 21.255C67.7345 21.4905 67.4734 21.935 67.4734 22.416V28.4466H64.7948V22.416C64.7948 21.935 64.5336 21.4906 64.1084 21.255C61.6174 19.8751 59.9466 16.2361 59.9466 12.1958C60.3551 -0.528472 71.9097 -0.535265 72.322 12.1958C72.322 16.2361 70.6475 19.8784 68.1597 21.255Z" fill="currentColor"/>
<path d="M13.7143 2.70184C13.3594 2.70184 13.0179 2.84116 12.7668 3.08995C12.5156 3.33874 12.375 3.67709 12.375 4.02873V15.1345H8.86608V3.78671C8.85269 3.06357 8.25671 2.48303 7.5268 2.48303C6.79689 2.48303 6.20089 3.06353 6.18752 3.78671V15.1345H2.67856V4.02873C2.66852 3.30227 2.07254 2.72174 1.33928 2.72174C0.606023 2.72174 0.0100285 3.30224 0 4.02873V17.7882C0.00669597 20.0041 1.40622 21.9844 3.50896 22.7507V28.4462V28.4429C3.15405 28.4429 2.81253 28.5822 2.56139 28.831C2.31025 29.0798 2.16965 29.4182 2.16965 29.7698V45.6921C2.19644 48.6046 4.58704 50.9498 7.52678 50.9498C10.4665 50.9498 12.8572 48.6046 12.8839 45.6921V29.7698C12.8839 29.4182 12.7433 29.0798 12.4922 28.831C12.241 28.5822 11.8995 28.4429 11.5446 28.4429V22.7507C13.6472 21.9844 15.0468 20.0041 15.0535 17.7882V4.02873C15.0535 3.67711 14.9129 3.33876 14.6618 3.08995C14.4107 2.84113 14.0693 2.70184 13.7143 2.70184ZM10.2054 45.6922C10.1853 47.1418 8.98996 48.3094 7.52683 48.3094C6.06369 48.3094 4.86832 47.1418 4.84827 45.6922V31.0963H10.2054V45.6922ZM6.18755 28.4434V23.0961H8.86611V28.4434H6.18755ZM9.6965 20.4424H5.35723C3.8773 20.4391 2.68202 19.2516 2.67867 17.7887H12.3746C12.3746 19.2516 11.1764 20.4391 9.6965 20.4424Z" fill="currentColor"/>
<path d="M50.2467 15.1578C46.0548 13.1542 41.0693 13.768 37.5002 16.7269C30.1777 10.4309 18.0174 15.7715 18.0808 25.4413C17.9436 36.3245 36.4125 44.7307 37.5002 44.8963C38.5214 44.7768 57.0773 36.3016 56.9195 25.454C56.8794 21.0356 54.2847 17.0287 50.2467 15.1578ZM37.5002 42.1001C34.5571 40.6903 20.7594 33.6646 20.7594 25.6538C20.6958 22.1808 22.7181 18.9997 25.9089 17.5533C29.083 16.0307 32.8598 16.452 35.6186 18.6347C36.3652 19.2218 37.3563 20.2667 38.334 19.4606C44.1164 13.7485 54.2751 17.3575 54.2417 25.6571C54.2417 33.6647 40.4428 40.6939 37.5002 42.1001Z" fill="currentColor"/>
</svg>
