<svg width="72" height="65" viewBox="0 0 72 65" fill="none" xmlns="http://www.w3.org/2000/svg">
<path d="M64.8889 6.41544C61.0586 2.58527 55.9449 0.310165 50.5354 0.029454C45.1258 -0.251257 39.8041 1.48233 35.5979 4.89547C31.3417 1.46045 25.9528 -0.254764 20.4942 0.0882251C15.0356 0.431214 9.90372 2.80749 6.11105 6.74826C2.31837 10.689 0.140304 15.9081 0.00654589 21.3758C-0.127212 26.8436 1.79305 32.1629 5.3885 36.2844C5.55478 36.5609 5.77565 36.8007 6.03765 36.989L6.3464 37.3135L32.2334 63.2005C32.6745 63.6421 33.1984 63.9925 33.775 64.2315C34.3516 64.4706 34.9697 64.5936 35.5939 64.5936C36.2181 64.5936 36.8362 64.4706 37.4128 64.2315C37.9895 63.9925 38.5133 63.6421 38.9545 63.2005L64.8889 37.3373C68.9739 33.2286 71.2668 27.6702 71.2668 21.8764C71.2668 16.0825 68.9739 10.5242 64.8889 6.41544ZM61.4928 33.9807L35.5979 59.8756L13.1863 37.456H14.7696C15.1867 37.4563 15.5966 37.3467 15.9579 37.1382C16.3192 36.9298 16.6193 36.6298 16.8278 36.2686L23.2165 25.1855L28.758 42.0476C28.9076 42.4771 29.1773 42.8546 29.5352 43.1353C29.893 43.416 30.324 43.588 30.7767 43.6309H31.0063C31.4264 43.631 31.8389 43.5196 32.2019 43.3083C32.5649 43.0969 32.8653 42.793 33.0725 42.4276L39.7778 30.5529L43.1344 36.2844C43.3443 36.6416 43.6439 36.9376 44.0036 37.1431C44.3633 37.3487 44.7705 37.4565 45.1848 37.456H52.2621C52.892 37.456 53.4961 37.2058 53.9415 36.7604C54.3868 36.315 54.6371 35.711 54.6371 35.0811C54.6371 34.4512 54.3868 33.8471 53.9415 33.4018C53.4961 32.9564 52.892 32.7061 52.2621 32.7061H46.5385L41.7886 24.6551C41.5811 24.2922 41.2798 23.992 40.9162 23.7858C40.5526 23.5797 40.1402 23.4752 39.7224 23.4834C39.305 23.4861 38.8957 23.5988 38.5358 23.81C38.1758 24.0213 37.8779 24.3237 37.672 24.6867L31.6396 35.4453L26.0981 18.6306C25.9549 18.1948 25.6885 17.8098 25.3312 17.5222C24.9739 17.2345 24.5409 17.0565 24.0846 17.0096C23.6283 16.9627 23.1682 17.049 22.7598 17.258C22.3515 17.467 22.0124 17.7897 21.7836 18.1873L13.3842 32.7061H8.5551C5.77339 29.3089 4.40368 24.9726 4.72924 20.5939C5.0548 16.2152 7.05072 12.1291 10.3042 9.18057C13.5577 6.23207 17.82 4.64672 22.2095 4.75239C26.599 4.85806 30.78 6.64665 33.8879 9.74828C34.3329 10.1938 34.9365 10.4444 35.5662 10.4449C36.1959 10.4444 36.7995 10.1938 37.2445 9.74828C40.4579 6.53277 44.8171 4.72547 49.363 4.72399C53.909 4.7225 58.2693 6.52695 61.4848 9.74037C64.7004 12.9538 66.5077 17.313 66.5091 21.8589C66.5106 26.4048 64.7062 30.7652 61.4928 33.9807Z" fill="black"/>
</svg>
