<svg width="89" height="53" viewBox="0 0 89 53" fill="none" xmlns="http://www.w3.org/2000/svg">
<path d="M60.2235 21.539C59.5468 21.539 58.998 22.3255 58.998 23.2949C58.998 24.2643 59.5468 25.0508 60.2235 25.0508C60.9003 25.0508 61.449 24.2643 61.449 23.2949C61.449 22.3255 60.9003 21.539 60.2235 21.539ZM59.7919 22.9254C59.6309 22.9254 59.5029 22.7937 59.5029 22.6364C59.5029 22.4755 59.6346 22.3475 59.7919 22.3475C59.9528 22.3475 60.0808 22.4791 60.0808 22.6364C60.0845 22.7937 59.9528 22.9254 59.7919 22.9254Z" fill="black"/>
<path d="M73.6228 23.2949C73.6228 22.3254 73.0741 21.539 72.3974 21.539C71.7206 21.539 71.1719 22.3255 71.1719 23.2949C71.1719 24.2643 71.7206 25.0508 72.3974 25.0508C73.0741 25.0544 73.6228 24.2679 73.6228 23.2949ZM71.9694 22.9254C71.8084 22.9254 71.6804 22.7937 71.6804 22.6364C71.6804 22.4755 71.8121 22.3474 71.9694 22.3474C72.1303 22.3474 72.2584 22.4791 72.2584 22.6364C72.2584 22.7937 72.1267 22.9254 71.9694 22.9254Z" fill="black"/>
<path d="M70.7285 30.4575C70.6333 30.4356 70.5236 30.4136 70.4212 30.3917C69.3676 30.1575 68.0836 29.9673 66.5985 29.9673C65.0621 29.9637 63.7415 30.1612 62.666 30.399C62.5782 30.4173 62.4795 30.4356 62.3953 30.4575C62.0734 30.5343 61.8539 30.805 61.821 31.1233C61.8137 31.1818 61.8027 31.2367 61.81 31.2952C61.9929 32.6451 62.7136 33.9254 63.7269 34.8034C64.0964 35.1216 64.4988 35.3923 64.9378 35.5862C65.4463 35.8057 65.9877 35.941 66.5583 35.941C67.129 35.941 67.6741 35.8093 68.1789 35.5862C68.6179 35.396 69.0203 35.1253 69.3898 34.8034C70.4067 33.9254 71.1274 32.6451 71.3067 31.2952C71.314 31.244 71.303 31.2001 71.2993 31.1526C71.2847 30.8233 71.0577 30.5343 70.7285 30.4575Z" fill="black"/>
<path d="M87.9737 19.3514C86.5763 11.5705 79.7758 0 66.7784 0H66.7711C54.0265 0.00365882 47.1088 11.5674 45.5683 19.3364C45.0379 22.0178 43.7941 28.2987 47.679 33.2412C49.7239 35.8457 52.4894 37.1773 54.6807 37.865C51.7505 40.6708 49.9142 44.6069 49.9142 48.9745C49.9142 50.3536 51.0372 51.4766 52.4164 51.4766H80.9977C82.3768 51.4766 83.4998 50.3536 83.4998 48.9745C83.4998 44.6433 81.6927 40.7291 78.8028 37.9306C83.145 36.3613 85.6838 32.8458 85.9983 32.3812C89.4186 27.3916 88.4053 21.7544 87.9737 19.3514ZM81.8134 48.9749C81.8134 49.4249 81.4476 49.7907 80.9977 49.7907H52.4164C51.9664 49.7907 51.6006 49.4249 51.6006 48.9749C51.6006 44.6986 53.5724 40.8759 56.6488 38.359C57.3109 38.4834 57.8157 38.5419 58.0718 38.5639C58.5656 38.6078 59.0009 38.6188 59.3997 38.6041C60.8154 41.1794 63.5517 42.928 66.6904 42.928C69.8254 42.928 72.558 41.1831 73.9736 38.6151C74.2626 38.648 74.5626 38.6663 74.8882 38.6663C75.3271 38.6663 75.8027 38.6334 76.3331 38.5566C76.5197 38.5309 76.6916 38.4871 76.8745 38.4541C79.8925 40.9709 81.8134 44.7539 81.8134 48.9749ZM72.1893 36.5114C71.732 36.7052 71.2637 36.8735 70.7882 37.0198C70.0492 37.2467 69.2956 37.4113 68.5201 37.5064C67.9751 37.5759 67.4263 37.6198 66.8667 37.6198C66.3216 37.6198 65.7839 37.5759 65.2534 37.51C64.4816 37.4149 63.7207 37.2503 62.9854 37.0272C62.5098 36.8845 62.0452 36.7199 61.5916 36.526C61.277 36.3943 60.9734 36.2443 60.6734 36.0907C60.5125 36.0102 60.3442 35.937 60.1869 35.8492C60.0186 35.7578 59.8613 35.6481 59.6967 35.5493C59.5504 35.4615 59.404 35.37 59.2577 35.2786C59.126 35.1908 58.9907 35.1103 58.859 35.0189C58.6944 34.9055 58.5407 34.7774 58.3834 34.6567C56.4117 33.1568 54.8022 31.1815 53.7669 28.9281C53.6315 28.6318 53.5145 28.3282 53.3974 28.0245C53.2584 27.6514 53.134 27.2783 53.0243 26.8942C52.7609 25.9614 52.5963 24.9993 52.5378 24.0189C52.5231 23.7629 52.4975 23.5068 52.4975 23.2471C52.4975 23.0935 52.5122 22.9471 52.5158 22.7935C52.5268 22.4569 52.5524 22.135 52.5853 21.824C52.6073 21.6265 52.6256 21.4216 52.6548 21.2387C52.6621 21.2095 52.6731 21.1583 52.6804 21.129C52.8633 20.0535 53.0865 19.3658 53.284 18.9304C54.8497 19.1536 58.976 19.4206 61.9098 16.6624C63.534 17.6793 67.9787 19.8632 72.226 16.6294C73.3418 17.7561 75.3062 18.9121 77.5193 18.0122C78.807 18.817 80.6068 20.2072 80.9506 21.2058C80.9799 21.3668 81.0092 21.5277 81.0421 21.6924C81.0421 21.6997 81.0458 21.7033 81.0458 21.7106C81.1043 22.007 81.1555 22.2959 81.1921 22.5776C81.2213 22.8044 81.247 23.0276 81.247 23.247C81.247 23.3641 81.2323 23.4812 81.2287 23.5982C81.1921 24.9041 80.9762 26.1772 80.5848 27.3954C80.4824 27.7173 80.3544 28.0282 80.2263 28.3428C80.1166 28.6171 79.9959 28.8878 79.8678 29.1549C78.7667 31.4522 77.073 33.4569 75.0026 34.9347C74.9184 34.9933 74.8416 35.0591 74.7575 35.1176C74.549 35.2603 74.3295 35.3847 74.1173 35.5164C74.0515 35.5566 73.9856 35.6005 73.9161 35.6408C73.671 35.7834 73.4259 35.9188 73.1735 36.0505C73.0967 36.0907 73.0162 36.1273 72.9357 36.1675C72.6833 36.2809 72.4417 36.4053 72.1893 36.5114ZM72.2002 38.3002C71.0077 40.0744 68.9847 41.2413 66.6948 41.2413C64.4304 41.2413 62.4257 40.0963 61.2296 38.3588C61.3247 38.3368 61.4198 38.3149 61.5113 38.2893C63.205 38.9331 65.0084 39.3025 66.8668 39.3025C68.7178 39.3062 70.5138 38.9367 72.2002 38.3002ZM84.6123 31.4267C84.4916 31.6023 81.7956 35.447 77.2815 36.6395C76.9266 36.7346 76.5645 36.8151 76.1877 36.8736C76.1584 36.8773 76.1328 36.8846 76.0999 36.8919C75.6609 36.9541 75.2695 36.9833 74.9073 36.9833C75.1488 36.837 75.3939 36.6944 75.6243 36.5371C75.8731 36.3688 76.1109 36.1822 76.3486 35.9993C78.4484 34.4044 80.1713 32.3229 81.331 29.9561C81.3822 29.9671 81.4298 29.9927 81.4846 30.0037C81.6785 30.0403 81.8724 30.0549 82.0626 30.0549C83.8624 30.0549 85.5305 28.5222 85.9256 26.3821C86.3645 24.0117 85.0879 21.7838 83.0759 21.4107C82.9478 21.3888 82.8198 21.3925 82.6954 21.3851C82.6954 21.3815 82.6918 21.3742 82.6918 21.3705C82.6588 21.1986 82.6259 21.0266 82.5967 20.8584C82.5893 20.8254 82.582 20.7889 82.5711 20.7559C81.9309 18.6635 78.3935 16.5637 77.9911 16.3296C77.7424 16.1833 77.4351 16.1796 77.179 16.3113C74.8964 17.5038 73.0819 15.0603 73.0088 14.9578C72.8698 14.7639 72.6503 14.6359 72.4125 14.6103C72.1747 14.5847 71.937 14.6615 71.7577 14.8225C67.3534 18.8098 62.5283 15.0639 62.3274 14.9066C61.9762 14.6249 61.4677 14.6688 61.1714 15.0054C58.2632 18.294 53.087 17.1856 53.0358 17.171C52.7029 17.0978 52.359 17.2295 52.1615 17.5075C51.6566 18.2282 51.2835 19.3183 51.0201 20.8547C50.9908 21.0229 50.9762 21.1912 50.9542 21.3595C50.7421 21.3558 50.5299 21.3631 50.3177 21.4034C49.3118 21.59 48.463 22.2338 47.929 23.2142C47.4241 24.136 47.2632 25.259 47.4717 26.3748C47.8668 28.5185 49.5349 30.0475 51.3347 30.0475C51.5249 30.0475 51.7188 30.0292 51.9127 29.9963C52.0736 29.9671 52.2199 29.9049 52.3663 29.8537C53.4966 32.2058 55.1866 34.28 57.2498 35.8822C57.4876 36.0651 57.7217 36.2554 57.9668 36.4273C58.2082 36.5956 58.4606 36.7455 58.713 36.8992C58.7204 36.9028 58.7277 36.9065 58.735 36.9138H58.7167C58.5594 36.9065 58.3984 36.8992 58.2229 36.8846C58.1058 36.8736 57.8131 36.8443 57.3961 36.7748C57.0852 36.7236 56.7011 36.6468 56.2695 36.5444C54.2465 36.0578 51.1371 34.9055 49.0118 32.1985C45.6024 27.86 46.7437 22.1164 47.2303 19.6619C48.6606 12.4372 55.0477 1.68624 66.7755 1.6825H66.7828C78.7444 1.6825 85.0226 12.4267 86.3205 19.6479C86.7449 22.0366 87.6375 27.0078 84.6123 31.4267ZM82.9186 23.1118C83.9209 23.4081 84.5244 24.6848 84.2684 26.0712C84.016 27.432 83.0393 28.4015 82.0077 28.3539C82.593 26.7297 82.9295 25.0104 82.9295 23.2399C82.9295 23.196 82.9222 23.1557 82.9186 23.1118ZM51.7114 28.3063C51.6748 28.3173 51.6382 28.3356 51.598 28.3429C50.5042 28.5478 49.3921 27.5272 49.1215 26.0712C48.9862 25.3359 49.0849 24.608 49.4032 24.0227C49.6885 23.4959 50.1202 23.1557 50.6177 23.0643C50.6835 23.0533 50.7494 23.0496 50.8152 23.046C50.8152 23.1118 50.8079 23.1777 50.8079 23.2399C50.8079 24.9958 51.1371 26.6967 51.7114 28.3063Z" fill="black"/>
<path d="M23.9042 30.4575C23.8091 30.4356 23.6994 30.4136 23.597 30.3917C22.5434 30.1575 21.2594 29.9673 19.7743 29.9673C18.2379 29.9637 16.9173 30.1612 15.8418 30.399C15.754 30.4173 15.6552 30.4356 15.5711 30.4575C15.2492 30.5343 15.0297 30.805 14.9968 31.1233C14.9895 31.1818 14.9785 31.2367 14.9858 31.2952C15.0443 31.7379 15.1797 32.1695 15.3443 32.5902C15.4797 32.9304 15.6443 33.2596 15.8381 33.5669C16.054 33.9108 16.2954 34.2364 16.5734 34.5217C16.6759 34.6241 16.7929 34.7082 16.899 34.8033C17.2685 35.1216 17.6709 35.3923 18.1099 35.5862C18.6183 35.8057 19.1598 35.941 19.7304 35.941C20.3011 35.941 20.8462 35.8093 21.351 35.5862C21.79 35.396 22.1924 35.1252 22.5619 34.8033C22.6753 34.7082 22.7923 34.6204 22.8984 34.5143C23.1765 34.229 23.4142 33.9034 23.6301 33.5633C23.8276 33.2523 23.9922 32.9231 24.1239 32.5829C24.2885 32.1658 24.4202 31.7378 24.4787 31.2989C24.4861 31.2476 24.4751 31.2038 24.4714 31.1562C24.4568 30.8233 24.2335 30.5343 23.9042 30.4575Z" fill="black"/>
<path d="M25.5741 22.4754C24.8974 22.4754 24.3486 23.2619 24.3486 24.2313C24.3486 25.2007 24.8974 25.9872 25.5741 25.9872C26.2509 25.9872 26.7996 25.2007 26.7996 24.2313C26.7996 23.2619 26.2509 22.4754 25.5741 22.4754ZM25.1424 23.8619C24.9815 23.8619 24.8535 23.7302 24.8535 23.5729C24.8535 23.412 24.9851 23.2839 25.1424 23.2839C25.3034 23.2839 25.4314 23.4156 25.4314 23.5729C25.4351 23.7302 25.3034 23.8619 25.1424 23.8619Z" fill="black"/>
<path d="M13.3993 22.4754C12.7225 22.4754 12.1738 23.2619 12.1738 24.2313C12.1738 25.2007 12.7225 25.9872 13.3993 25.9872C14.0761 25.9872 14.6248 25.2007 14.6248 24.2313C14.6284 23.2619 14.0761 22.4754 13.3993 22.4754ZM12.9713 23.8619C12.8103 23.8619 12.6823 23.7302 12.6823 23.5729C12.6823 23.412 12.814 23.2839 12.9713 23.2839C13.1323 23.2839 13.2603 23.4156 13.2603 23.5729C13.2603 23.7302 13.1323 23.8619 12.9713 23.8619Z" fill="black"/>
<path d="M37.2144 23.8847C38.0594 21.8142 38.5057 19.579 38.4948 17.2562C38.4728 12.4567 36.5743 8.07065 33.1503 4.91342C29.6861 1.71984 24.8757 -0.0360549 19.4909 0.000561358C14.1207 0.0261684 9.20084 1.81133 5.63755 5.03047C2.07088 8.25327 0.117483 12.6576 0.139397 17.435C0.150371 19.7433 0.607635 21.9089 1.40879 23.8916C1.07224 24.1806 0.775939 24.5244 0.545472 24.9488C0.0443066 25.8706 -0.120308 26.9937 0.0882084 28.1094C0.48328 30.2531 2.15136 31.7822 3.95118 31.7822C4.14139 31.7822 4.33528 31.7639 4.52916 31.7309C4.68646 31.7017 4.83644 31.6432 4.98642 31.5883C6.08023 33.8673 7.70071 35.8865 9.67246 37.4668C5.38518 40.2031 2.52452 44.9916 2.52452 50.4417C2.52452 51.8209 3.64754 52.9439 5.02669 52.9439H33.6042C34.9834 52.9439 36.1064 51.8209 36.1064 50.4417C36.1064 45.0716 33.3372 40.3381 29.1523 37.5839C31.1679 36.0072 32.8251 33.9806 33.9481 31.6797C33.9993 31.6907 34.0505 31.7163 34.1017 31.7272C34.2956 31.7638 34.4895 31.7785 34.6797 31.7785C36.4795 31.7785 38.1476 30.2457 38.5427 28.1057C38.7512 26.99 38.5866 25.8669 38.0854 24.9451C37.8586 24.5244 37.5546 24.1736 37.2144 23.8847ZM4.22234 30.0779C3.13219 30.2827 2.01647 29.2621 1.74583 27.8062C1.61048 27.0709 1.70925 26.3429 2.0275 25.7576C2.0714 25.6771 2.12627 25.6076 2.17749 25.5345C2.36405 25.2711 2.5872 25.0662 2.84327 24.9382C2.9713 24.876 3.10299 24.8248 3.242 24.7992C3.30785 24.7882 3.37369 24.7919 3.43954 24.7882C3.43954 24.8504 3.43223 24.9126 3.43223 24.9748C3.43223 25.3406 3.46515 25.7027 3.49076 26.0649C3.53831 26.6941 3.61513 27.3196 3.7395 27.9306C3.88583 28.6512 4.09068 29.3536 4.33578 30.0413C4.29919 30.0523 4.26258 30.0705 4.22234 30.0779ZM34.4237 50.45C34.4237 50.8999 34.0579 51.2657 33.608 51.2657H5.03044C4.58049 51.2657 4.21102 50.8999 4.21102 50.45C4.21102 45.3469 7.02045 40.8951 11.1651 38.5352C11.2456 38.5864 11.3297 38.6376 11.4102 38.6888C12.504 42.0031 15.628 44.4028 19.3044 44.4028C22.8674 44.4028 25.9073 42.1457 27.0889 38.9889C27.2791 38.8828 27.4584 38.7584 27.6449 38.6414C31.6944 41.0265 34.4237 45.4204 34.4237 50.45ZM13.9233 39.9474C15.6792 40.6424 17.5558 41.0449 19.4909 41.0449C21.2359 41.0449 22.9332 40.7193 24.5391 40.1486C23.3246 41.7107 21.4334 42.7239 19.3081 42.7239C17.0912 42.7203 15.1305 41.6228 13.9233 39.9474ZM33.8487 25.3262C33.8378 25.7505 33.8121 26.1712 33.7609 26.5883C33.6878 27.1809 33.5671 27.7589 33.4207 28.3332C33.3512 28.6003 33.289 28.8673 33.2049 29.127C33.1025 29.4489 32.9744 29.7599 32.8464 30.0708C32.8391 30.0854 32.8354 30.1001 32.8318 30.1147C32.7257 30.3781 32.6086 30.6342 32.4843 30.8902C31.3795 33.1948 29.6748 35.2068 27.5933 36.6883C27.5897 36.692 27.586 36.692 27.5823 36.6956C27.3153 36.8859 27.041 37.0578 26.7629 37.2297L26.6751 37.2846C26.4044 37.4492 26.1301 37.6065 25.8484 37.7528C25.7972 37.7784 25.7496 37.8004 25.6984 37.826C23.7962 38.7917 21.6854 39.3587 19.4906 39.3587C17.1824 39.3587 14.9655 38.7405 12.9865 37.6796C12.9426 37.6577 12.8987 37.6394 12.8548 37.6138C12.5841 37.4675 12.328 37.2992 12.0683 37.1346C12.0098 37.098 11.9513 37.0651 11.8964 37.0285C11.6806 36.8895 11.472 36.7431 11.2672 36.5932C11.1794 36.5273 11.0916 36.4615 11.0075 36.3956C9.03572 34.8958 7.4262 32.9205 6.39092 30.667C6.38726 30.6597 6.3836 30.656 6.3836 30.6487C6.25192 30.3561 6.13486 30.0598 6.02145 29.7598C5.9117 29.4672 5.80562 29.1708 5.71417 28.8672C5.68857 28.7867 5.67028 28.7026 5.64833 28.6185C5.51663 28.1502 5.41055 27.6747 5.32641 27.1918C5.24593 26.7126 5.19106 26.2298 5.1618 25.7396C5.14717 25.4872 5.12156 25.2347 5.12156 24.9787C5.12156 24.8287 5.13619 24.6787 5.13985 24.5287C5.15083 24.2105 5.17643 23.8886 5.21301 23.5703C5.23862 23.3362 5.26423 23.1058 5.30447 22.8716C5.47639 21.9022 5.98487 21.0389 6.74215 20.4389C7.74446 19.6488 9.88449 18.2843 9.90641 18.2733C10.1259 18.1343 10.2686 17.9002 10.2942 17.6405C10.4003 16.5102 10.6014 15.1822 10.7917 14.425C11.3001 14.8896 12.072 15.7309 12.7561 16.576C12.961 16.8321 13.2975 16.9455 13.6158 16.865C13.6341 16.8613 15.4558 16.4077 17.508 16.1626C17.8335 16.1261 18.1042 15.9029 18.2067 15.592L18.9017 13.5031L20.4527 15.7528C20.6063 15.9797 20.8624 16.115 21.1368 16.1187C22.8305 16.1406 24.8022 16.4625 25.8265 16.6527C26.1923 16.7222 26.5617 16.5393 26.7337 16.2064L27.5019 14.6883L28.3505 17.0625C28.431 17.2893 28.6066 17.4722 28.8334 17.5636L29.2431 17.7246C29.9382 17.9953 30.7979 18.3355 31.3685 18.6465C32.1257 19.0598 32.7256 19.7585 33.0549 20.6146C33.3402 21.3535 33.5524 22.1217 33.6877 22.8936C33.717 23.0655 33.7316 23.2374 33.7536 23.4094C33.7901 23.702 33.8194 23.9983 33.8377 24.2946C33.8523 24.5251 33.867 24.7519 33.867 24.9824C33.867 25.0958 33.8524 25.2091 33.8487 25.3262ZM32.1733 17.1576C31.5112 16.7954 30.593 16.4369 29.8577 16.148L28.431 12.2704C28.3176 11.9521 28.0286 11.7326 27.6921 11.7143C27.3555 11.6851 27.0409 11.8716 26.8873 12.1753L25.5118 14.8823C24.4765 14.7067 22.9914 14.4945 21.5976 14.4396L19.4613 11.3448C19.2638 11.0156 18.876 10.8327 18.4993 10.9059C18.1518 10.9681 17.8701 11.2278 17.7713 11.5643L16.7763 14.5566C15.4886 14.7322 14.3583 14.9664 13.7291 15.1054C11.1977 12.0509 10.5539 12.3069 10.1185 12.4788C9.75271 12.6215 9.08689 12.8849 8.65162 17.0734C7.98219 17.505 6.51533 18.4671 5.69216 19.1183C4.61306 19.9706 3.88504 21.1998 3.63631 22.6008C3.60705 22.7691 3.59242 22.9374 3.57047 23.1057C3.3583 23.102 3.14978 23.1093 2.93395 23.1495C2.23526 21.39 1.8365 19.4731 1.82554 17.4355C1.80359 13.1446 3.55952 9.18649 6.76761 6.29333C10.0234 3.35224 14.5448 1.72071 19.5018 1.69879H19.6079C24.4805 1.69879 28.8848 3.28275 32.0087 6.16532C35.0853 9.00032 36.7899 12.9475 36.8118 17.2747C36.8228 19.3306 36.4277 21.3133 35.6961 23.1496C35.6047 23.1314 35.5132 23.1387 35.4218 23.1314C35.3998 22.9558 35.3852 22.7802 35.3523 22.6082C35.1986 21.7303 34.9572 20.856 34.6353 20.011C34.156 18.7746 33.2853 17.7612 32.1733 17.1576ZM36.8923 27.8063C36.6399 29.167 35.6522 30.1328 34.6315 30.0889C34.9571 29.1817 35.1985 28.2452 35.3485 27.2868C35.4436 26.6759 35.5058 26.0613 35.5278 25.4357C35.5314 25.2821 35.5534 25.1321 35.5534 24.9748C35.5534 24.9309 35.5497 24.8907 35.5461 24.8468C35.6265 24.8724 35.7107 24.898 35.7875 24.9346C36.0399 25.059 36.263 25.2602 36.4459 25.5162C36.5008 25.593 36.5593 25.6699 36.6069 25.7577C36.9288 26.343 37.0276 27.0709 36.8923 27.8063Z" fill="black"/>
</svg>
