<svg width="63" height="63" viewBox="0 0 63 63" fill="none" xmlns="http://www.w3.org/2000/svg">
<path d="M43.7629 12.0391C44.5831 12.4043 45.4542 12.5899 46.3254 12.5899C47.0858 12.5899 47.8462 12.4492 48.5766 12.1708C50.1453 11.5691 51.3876 10.3926 52.0731 8.85987C52.7586 7.32417 52.8036 5.61481 52.2048 4.04623C51.6031 2.47757 50.4267 1.23523 48.8939 0.549727C47.3582 -0.135802 45.6489 -0.180703 44.0803 0.418006C42.5116 1.01972 41.2693 2.19618 40.5838 3.7289C39.8983 5.2646 39.8534 6.97396 40.4521 8.54254C41.0538 10.1112 42.2302 11.3535 43.7629 12.0391ZM42.2541 4.47725C42.739 3.39056 43.6191 2.55538 44.7328 2.13028C45.2507 1.93271 45.7895 1.83392 46.3284 1.83392C46.945 1.83392 47.5617 1.96264 48.1455 2.22308C49.2322 2.70804 50.0673 3.58812 50.4924 4.70179C50.9175 5.81239 50.8846 7.02477 50.3996 8.11146C49.9147 9.19816 49.0346 10.0333 47.9209 10.4584C46.8073 10.8835 45.5949 10.8506 44.5112 10.3656C43.4246 9.88067 42.5894 9.0006 42.1643 7.88693C41.7392 6.77326 41.7721 5.56395 42.2571 4.47725H42.2541ZM58.0633 22.3127H48.6578L45.4726 15.179C45.4607 15.152 45.4487 15.1251 45.4337 15.1011C44.9996 14.1761 44.2512 13.4427 43.3232 13.0296C42.7994 12.7961 42.2425 12.6734 41.6648 12.6614C41.6378 12.6584 41.6139 12.6584 41.5869 12.6584H30.1038C30.0739 12.6584 30.047 12.6584 30.02 12.6614C28.3796 12.7003 26.8977 13.6822 26.2302 15.179L21.2638 26.3065C20.3088 28.4499 21.2728 30.9705 23.4162 31.9284C25.5596 32.8864 28.0801 31.9195 29.0381 29.7761L32.8788 21.1699H35.0282L19.3601 56.2782C18.4051 58.4216 19.3691 60.9422 21.5125 61.9001C22.0753 62.1516 22.662 62.2683 23.2398 62.2683C24.8683 62.2683 26.4249 61.3283 27.1314 59.7477L35.9981 39.8791L38.5786 41.0317L34.3307 50.5483C33.3758 52.6917 34.3397 55.2123 36.4831 56.1702C38.6265 57.1252 41.1471 56.1612 42.105 54.0178L48.0862 40.6158C48.5502 39.577 48.5801 38.4215 48.176 37.3587C47.7689 36.296 46.9726 35.4578 45.9368 34.9938L39.4707 32.1081L41.5901 27.3602L42.0122 28.3062C42.6977 29.8419 44.2214 30.8269 45.9188 30.8269H45.9637H58.0638C60.4107 30.8269 62.3206 28.9169 62.3206 26.57C62.3206 24.223 60.4102 22.3127 58.0633 22.3127ZM58.0633 28.9913H45.987H45.9271C45.9182 28.9943 45.9062 28.9913 45.8972 28.9913C44.9393 28.9913 44.0741 28.4315 43.682 27.5574L42.4217 24.7344C42.275 24.4051 41.9457 24.1926 41.5835 24.1926C41.2212 24.1926 40.8949 24.4051 40.7452 24.7344L37.4163 32.1945C37.3175 32.416 37.3115 32.6675 37.3984 32.895C37.4852 33.1225 37.6588 33.3051 37.8803 33.4039L45.1846 36.6639C45.7744 36.9273 46.2294 37.4063 46.4599 38.011C46.6904 38.6157 46.6725 39.2742 46.409 39.864L40.4278 53.2661C39.883 54.4875 38.4461 55.0353 37.2277 54.4905C36.0093 53.9457 35.4585 52.5118 36.0033 51.2903L40.6253 40.9384C40.7241 40.7169 40.7301 40.4654 40.6433 40.2379C40.5565 40.0104 40.3829 39.8278 40.1613 39.729L35.9074 37.831C35.6859 37.7322 35.4344 37.7262 35.2069 37.8131C34.9794 37.8999 34.7968 38.0735 34.698 38.295L25.4565 59.002C24.9117 60.2204 23.4778 60.7712 22.2564 60.2264C21.038 59.6816 20.4872 58.2477 21.032 57.0263L37.2749 20.6304C37.4006 20.346 37.3767 20.0197 37.2061 19.7593C37.0384 19.4989 36.748 19.3402 36.4367 19.3402H32.2786C31.9164 19.3402 31.5901 19.5527 31.4404 19.882L27.3571 29.0308C26.8123 30.2522 25.3754 30.8 24.157 30.2552C22.9386 29.7104 22.3878 28.2765 22.9326 27.0551L27.899 15.9276C28.2851 15.0594 29.1503 14.4966 30.1052 14.4936C30.1292 14.4936 30.1501 14.4936 30.1741 14.4906H41.5169C41.5409 14.4936 41.5618 14.4936 41.5858 14.4936H41.5888C41.933 14.4936 42.2653 14.5625 42.5737 14.7032C43.1155 14.9457 43.5496 15.3797 43.7951 15.9306L43.831 16.0024L47.2258 23.6091C47.3725 23.9384 47.7017 24.151 48.064 24.151H58.0657C59.4009 24.151 60.4876 25.2377 60.4876 26.5728C60.4876 27.908 59.4009 28.9947 58.0657 28.9947L58.0633 28.9913ZM18.2878 32.0508H0.916027C0.410108 32.0508 0 31.6407 0 31.1348C0 30.6289 0.410124 30.2187 0.916027 30.2187H18.2878C18.7937 30.2187 19.2038 30.6289 19.2038 31.1348C19.2038 31.6407 18.7937 32.0508 18.2878 32.0508ZM3.8734 25.6056C3.8734 25.0996 4.28352 24.6895 4.78942 24.6895H18.6436C19.1495 24.6895 19.5597 25.0997 19.5597 25.6056C19.5597 26.1115 19.1495 26.5216 18.6436 26.5216H4.78942C4.28351 26.5216 3.8734 26.1115 3.8734 25.6056ZM23.6278 37.583H9.77358C9.26766 37.583 8.85755 37.1728 8.85755 36.6669C8.85755 36.161 9.26768 35.7509 9.77358 35.7509H23.6278C24.1337 35.7509 24.5438 36.161 24.5438 36.6669C24.5438 37.1728 24.1337 37.583 23.6278 37.583Z" fill="currentColor"/>
</svg>
